<?xml version="1.0" encoding="utf-8"?>
<!-- Generator: Adobe Illustrator 22.1.0, SVG Export Plug-In . SVG Version: 6.00 Build 0)  -->
<svg version="1.1" id="Layer_1" xmlns="http://www.w3.org/2000/svg" xmlns:xlink="http://www.w3.org/1999/xlink" x="0px" y="0px"
	 viewBox="0 0 500 500" style="enable-background:new 0 0 500 500;" xml:space="preserve">
<style type="text/css">
	.st0{fill:none;}
	.st1{fill:#E53D56;}
	.st2{fill:#F0C337;}
	.st3{fill:#FF0000;}
	.st4{fill:#ED1B32;}
	.st5{fill:#F14231;}
	.st6{fill:#931B3E;}
	.st7{fill:#ED1E79;}
	.st8{fill:#E41450;}
	.st9{fill:#FFC825;}
	.st10{fill:#F6862F;}
	.st11{fill:#C51D51;}
	.st12{fill:#FFE14F;}
	.st13{fill:#FCB52B;}
	.st14{fill:#FFF44E;}
	.st15{fill:#FEDE45;}
</style>
<g>
	<g>
		<polygon class="st0" points="123.2,376.8 123.2,376.8 123.2,376.8 		"/>
		<polygon class="st0" points="123.3,123.2 123.1,123.1 123.2,123.2 123.2,123.2 		"/>
		<polygon class="st0" points="376.8,123.2 376.9,123.1 376.7,123.2 376.8,123.2 		"/>
		<polygon class="st0" points="123.2,376.8 123.2,376.8 123.2,376.8 123.2,376.8 		"/>
		<polygon class="st0" points="376.8,376.8 376.8,376.8 376.8,376.8 376.8,376.8 		"/>
		<polygon class="st0" points="376.8,376.8 376.8,376.8 376.8,376.8 		"/>
		<polygon class="st0" points="123.2,376.8 123.2,376.8 123.2,376.8 		"/>
		<polygon class="st14" points="250,50 123.3,123.2 123.3,123.2 250,123.2 376.7,123.2 376.7,123.2 		"/>
		<polygon class="st3" points="376.8,123.2 376.8,123.2 376.7,123.2 376.7,123.2 		"/>
		<polygon class="st3" points="376.8,376.8 376.8,376.8 376.8,376.8 376.8,376.8 376.8,376.8 		"/>
		<polygon class="st6" points="250,376.8 123.2,376.8 250,450 376.8,376.8 		"/>
		<polygon class="st3" points="376.8,376.8 250,376.8 250,376.8 376.8,376.8 376.8,376.8 		"/>
		<polygon class="st3" points="250,376.8 123.2,376.8 123.2,376.8 123.2,376.8 123.2,376.8 250,376.8 		"/>
		<polygon class="st3" points="123.2,123.2 123.3,123.2 123.3,123.2 123.2,123.2 		"/>
		<polygon class="st3" points="123.2,376.8 123.2,376.8 123.2,376.8 123.2,376.8 		"/>
		<polygon class="st8" points="303.8,272.5 287.8,249.8 250,303.6 376.8,376.8 		"/>
		<polygon class="st3" points="249.7,196.2 249.4,196.7 250,196.3 		"/>
		<polygon class="st3" points="250.6,196.7 250.3,196.2 250,196.3 		"/>
		<polygon class="st3" points="250,195.8 249.7,196.2 250,196.3 		"/>
		<polygon class="st3" points="250.3,196.2 250,195.8 250,196.3 		"/>
		<polygon class="st5" points="249.4,196.7 212.2,249.8 196.2,272.5 123.2,376.8 123.2,376.8 250,303.6 250,196.3 		"/>
		<polygon class="st3" points="376.8,376.8 376.8,376.8 376.8,376.8 376.8,376.8 		"/>
		<polygon class="st11" points="376.8,376.8 250,303.6 123.2,376.8 123.2,376.8 250,376.8 376.8,376.8 		"/>
		<polygon class="st10" points="376.7,123.2 250.3,196.2 250.6,196.7 250,196.3 250,303.6 287.8,249.8 303.6,227.3 376.8,123.2 		
			"/>
		<polygon class="st9" points="123.3,123.2 123.2,123.2 196.4,227.3 212.2,249.8 249.4,196.7 249.7,196.2 		"/>
		<polygon class="st15" points="250,123.2 123.3,123.2 249.7,196.2 250,195.8 250.3,196.2 376.7,123.2 		"/>
	</g>
</g>
</svg>
