<svg version="1.1" xmlns="http://www.w3.org/2000/svg" xmlns:xlink="http://www.w3.org/1999/xlink" width="48" height="48"><defs><linearGradient x1="8.44322" y1="8.44322" x2="60.06288" y2="60.06288" gradientUnits="userSpaceOnUse" id="color-1"><stop offset="0" stop-color="#000000" stop-opacity="0.26"></stop><stop offset="1" stop-color="#000000" stop-opacity="0"></stop></linearGradient><filter id="dropshadow-base"><feColorMatrix type="matrix" values="0 0 0 0 0  0 0 0 0 0  0 0 0 0 0  0 0 0 .8 0"></feColorMatrix> <feOffset dx="0" dy="1"></feOffset> <feGaussianBlur stdDeviation="1"></feGaussianBlur> <feComposite in="SourceGraphic"></feComposite></filter><filter id="dropshadow-banner" x="-10%" y="-10%" width="120%" height="130%"><feColorMatrix type="matrix" values="0 0 0 0 0  0 0 0 0 0  0 0 0 0 0  0 0 0 .4 0"></feColorMatrix> <feOffset dx="0" dy="1"></feOffset> <feGaussianBlur stdDeviation="0.5"></feGaussianBlur> <feComposite in="SourceGraphic"></feComposite></filter></defs><g fill="none" fill-rule="nonzero" stroke="none" stroke-width="none" stroke-linecap="butt" stroke-linejoin="miter" stroke-miterlimit="10" stroke-dasharray="" stroke-dashoffset="0" font-family="none" font-weight="none" font-size="none" text-anchor="none" style="mix-blend-mode: normal"><path d="M7,43c-1.10457,0 -2,-0.89543 -2,-2v-34c0,-1.10457 0.89543,-2 2,-2h34c1.10457,0 2,0.89543 2,2v34c0,1.10457 -0.89543,2 -2,2z" id="base 1 5 1" fill="#2d8aa8" stroke-width="1"></path><path d="M12.99891,35.00109l0,0c-2.81496,-2.81496 -4.55569,-6.70416 -4.55569,-11.00109c0,-8.59386 6.96292,-15.55678 15.55678,-15.55678c4.29693,0 8.18613,1.74073 11.00109,4.55569l7.99891,7.99891v20.00218c0,1.10457 -0.89543,2 -2,2h-20.00218zM30.25897,38.24713c0.82438,-0.36255 1.61128,-0.79454 2.35329,-1.28857l-1.06472,-1.06472c-0.49403,0.74202 -0.92602,1.52892 -1.28857,2.35329z" fill="url(#color-1)" stroke-width="1"></path><path d="M24,8.44322c-8.59387,0 -15.55678,6.96291 -15.55678,15.55678c0,8.59387 6.96291,15.55678 15.55678,15.55678c8.59387,0 15.55678,-6.96291 15.55678,-15.55678c0,-8.59387 -6.96291,-15.55678 -15.55678,-15.55678zM27.58182,30.40463l-5.53269,-4.02093c-0.19446,-0.14428 -0.30737,-0.3701 -0.30737,-0.60847v-10.55728c0,-0.41401 0.33874,-0.75275 0.75275,-0.75275h3.01099c0.41401,0 0.75275,0.33874 0.75275,0.75275v8.63778l3.98329,2.89808c0.33874,0.24464 0.40774,0.71511 0.1631,1.05385l-1.76896,2.43388c-0.24464,0.33246 -0.71511,0.40774 -1.05385,0.1631z" fill="none" stroke-width="0"></path><path d="M39.55678,24c0,8.59387 -6.96291,15.55678 -15.55678,15.55678c-8.59387,0 -15.55678,-6.96291 -15.55678,-15.55678c0,-8.59387 6.96291,-15.55678 15.55678,-15.55678c8.59387,0 15.55678,6.96291 15.55678,15.55678zM28.63567,30.24153l1.76896,-2.43388c0.24464,-0.33874 0.17564,-0.8092 -0.1631,-1.05385l-3.98329,-2.89808v-8.63778c0,-0.41401 -0.33874,-0.75275 -0.75275,-0.75275h-3.01099c-0.41401,0 -0.75275,0.33874 -0.75275,0.75275v10.55728c0,0.23837 0.11291,0.46419 0.30737,0.60847l5.53269,4.02093c0.33874,0.24464 0.8092,0.16937 1.05385,-0.1631z" fill="#fc864c" stroke-width="0"></path><path d="M2,24c0,-12.15026 9.84974,-22 22,-22c12.15026,0 22,9.84974 22,22c0,12.15026 -9.84974,22 -22,22c-12.15026,0 -22,-9.84974 -22,-22z" id="base 1 1 1" fill="none" stroke-width="1"></path><g fill="#000000" stroke-width="1" font-family="Roboto, sans-serif" font-weight="400" font-size="14" text-anchor="start"></g><rect x="2" y="2" width="44" height="22" fill="none" stroke-width="1"></rect><path d="M2,24v-22h44v22z" fill="none" stroke-width="1"></path><path d="M2,24v-22h44v22z" fill="none" stroke-width="1"></path><path d="M2,24v-22h44v22z" fill="none" stroke-width="1"></path><path d="M2,24v-22h44v22z" fill="none" stroke-width="1"></path></g></svg>